<svg width="364" height="200" viewBox="0 0 364 200" fill="none" xmlns="http://www.w3.org/2000/svg">
<g clip-path="url(#clip0_16_503)">
<path d="M113.005 200H33.4473C14.9747 200 0 185.024 0 166.554V106.55H32.224V162.122C32.2076 162.292 32.2 162.463 32.2 162.637C32.2 162.81 32.2076 162.982 32.224 163.151C32.4464 165.571 34.2257 167.5 36.4738 167.776C36.8422 167.821 37.2149 167.821 37.5833 167.776H81.0163C87.3435 181.821 98.7458 193.271 113.005 200Z" fill="#222222"/>
<path d="M32.224 162.122V163.151C32.2076 162.981 32.2 162.81 32.2 162.636C32.2 162.463 32.2076 162.291 32.224 162.122Z" fill="#222222"/>
<path d="M36.4738 167.776H37.5833C37.2149 167.821 36.8423 167.821 36.4738 167.776Z" fill="#222222"/>
<path d="M32.224 162.122V163.151C32.2076 162.981 32.2 162.81 32.2 162.636C32.2 162.463 32.2076 162.291 32.224 162.122Z" fill="#222222"/>
<path d="M37.5833 167.776C37.2149 167.821 36.8423 167.821 36.4738 167.776H37.5833Z" fill="#222222"/>
<path d="M169.065 125.128H201.289V200H129.63C110.56 196.335 94.6262 184.187 86.1809 167.776C81.8875 159.45 79.6515 150.216 79.6603 140.848C79.6603 114.399 97.1927 91.9294 121.587 83.7989L121.84 83.7142L138.704 78.1337L201.149 57.4712V91.4138L196.647 92.9037L188.56 95.5789L184.35 96.969L169.06 102.024L163.285 103.934L134.473 113.469C133.517 113.686 132.581 113.948 131.665 114.254C121.007 117.802 113.118 127.124 112.432 138.501C111.517 153.679 123.767 166.767 139.793 167.734C140.029 167.748 140.264 167.759 140.498 167.768H169.057L169.065 125.128Z" fill="#222222"/>
<path d="M363.651 19.5657L332.604 67.0146L326.609 48.8946L268.945 68.9127L264.785 70.3571V200H232.563V81.0201L225.425 83.3819L206.181 89.7496V55.807L232.563 47.0774L264.785 36.4144L316.487 18.302L310.431 0L363.651 19.5657Z" fill="#00B6FF"/>
</g>
<defs>
<clipPath id="clip0_16_503">
<rect width="363.651" height="200" fill="white"/>
</clipPath>
</defs>
</svg>
