<svg width="712" height="200" viewBox="0 0 712 200" fill="none" xmlns="http://www.w3.org/2000/svg">
<path d="M113.005 200H33.4473C14.9747 200 0 185.024 0 166.554V106.55H32.224V162.122C32.2076 162.292 32.2 162.463 32.2 162.637C32.2 162.81 32.2076 162.982 32.224 163.151C32.4464 165.571 34.2257 167.5 36.4738 167.776C36.8422 167.821 37.2149 167.821 37.5833 167.776H81.0162C87.3435 181.821 98.7458 193.271 113.005 200Z" fill="#222222"/>
<path d="M32.224 162.122V163.151C32.2076 162.982 32.2 162.81 32.2 162.637C32.2 162.463 32.2076 162.292 32.224 162.122Z" fill="#222222"/>
<path d="M36.4738 167.776H37.5833C37.2149 167.821 36.8422 167.821 36.4738 167.776Z" fill="#222222"/>
<path d="M32.224 162.122V163.151C32.2076 162.982 32.2 162.81 32.2 162.637C32.2 162.463 32.2076 162.292 32.224 162.122Z" fill="#222222"/>
<path d="M36.4738 167.776C36.8422 167.821 37.2149 167.821 37.5833 167.776H36.4738Z" fill="#222222"/>
<path d="M169.065 125.128H201.289V200H129.63C110.56 196.335 94.6262 184.187 86.1809 167.776C81.8875 159.45 79.6515 150.216 79.6603 140.848C79.6603 114.399 97.1927 91.9295 121.587 83.7989L121.84 83.7142L201.149 57.4712V91.4139L134.473 113.469C133.517 113.686 132.581 113.948 131.665 114.254C121.007 117.802 113.118 127.124 112.432 138.501C111.517 153.68 123.767 166.768 139.793 167.734C140.029 167.748 140.264 167.759 140.498 167.768H169.057L169.065 125.128Z" fill="#222222"/>
<path d="M363.651 19.5657L332.604 67.0146L326.609 48.8946L264.785 70.3571V200H232.563V81.0201L206.181 89.7496V55.807L264.785 36.4144L316.487 18.302L310.431 0L363.651 19.5657Z" fill="#00B6FF"/>
<path d="M303.914 128.677H310.72V155.392H326.851V161.248H303.914V128.677Z" fill="#222222"/>
<path d="M348.901 149.536C348.503 149.787 348.098 149.993 347.685 150.155C347.288 150.302 346.735 150.442 346.028 150.575L344.614 150.84C343.288 151.076 342.338 151.363 341.763 151.702C340.791 152.276 340.305 153.168 340.305 154.376C340.305 155.451 340.6 156.232 341.189 156.718C341.793 157.189 342.522 157.425 343.377 157.425C344.732 157.425 345.977 157.027 347.111 156.232C348.26 155.436 348.857 153.985 348.901 151.879V149.536ZM345.078 146.598C346.242 146.45 347.074 146.266 347.575 146.045C348.474 145.662 348.923 145.065 348.923 144.255C348.923 143.268 348.577 142.591 347.884 142.222C347.207 141.839 346.205 141.648 344.879 141.648C343.391 141.648 342.338 142.016 341.719 142.753C341.277 143.298 340.983 144.034 340.835 144.962H334.759C334.891 142.856 335.481 141.125 336.526 139.77C338.191 137.648 341.049 136.588 345.1 136.588C347.737 136.588 350.079 137.111 352.127 138.156C354.175 139.202 355.198 141.176 355.198 144.078V155.127C355.198 155.893 355.213 156.821 355.243 157.911C355.287 158.736 355.412 159.296 355.618 159.591C355.825 159.885 356.134 160.128 356.546 160.32V161.248H349.696C349.505 160.762 349.372 160.305 349.299 159.878C349.225 159.451 349.166 158.965 349.122 158.419C348.253 159.362 347.251 160.165 346.117 160.828C344.761 161.609 343.229 161.999 341.52 161.999C339.34 161.999 337.536 161.38 336.107 160.143C334.692 158.891 333.985 157.123 333.985 154.84C333.985 151.879 335.127 149.735 337.41 148.41C338.663 147.688 340.504 147.172 342.935 146.863L345.078 146.598Z" fill="#222222"/>
<path d="M365.294 128.787H371.481V146.332L379.326 137.273H387.126L378.707 146.487L387.457 161.248H379.856L374.089 150.951L371.481 153.669V161.248H365.294V128.787Z" fill="#222222"/>
<path d="M400.006 153.558C400.138 154.678 400.426 155.473 400.868 155.945C401.648 156.784 403.092 157.204 405.199 157.204C406.436 157.204 407.416 157.02 408.137 156.652C408.874 156.283 409.242 155.731 409.242 154.994C409.242 154.287 408.948 153.75 408.358 153.381C407.769 153.013 405.582 152.38 401.796 151.481C399.07 150.803 397.148 149.956 396.028 148.94C394.909 147.938 394.349 146.494 394.349 144.609C394.349 142.384 395.218 140.477 396.956 138.886C398.709 137.28 401.17 136.477 404.337 136.477C407.342 136.477 409.787 137.081 411.673 138.289C413.573 139.482 414.663 141.552 414.943 144.498H408.646C408.557 143.688 408.329 143.047 407.961 142.576C407.268 141.721 406.09 141.294 404.425 141.294C403.055 141.294 402.076 141.508 401.486 141.935C400.912 142.362 400.624 142.863 400.624 143.438C400.624 144.16 400.934 144.682 401.553 145.007C402.171 145.345 404.359 145.927 408.115 146.752C410.62 147.341 412.498 148.233 413.75 149.426C414.988 150.634 415.606 152.144 415.606 153.956C415.606 156.342 414.715 158.294 412.933 159.812C411.165 161.314 408.425 162.065 404.712 162.065C400.926 162.065 398.128 161.27 396.316 159.679C394.518 158.073 393.62 156.033 393.62 153.558H400.006Z" fill="#222222"/>
<path d="M438.12 136.543C439.608 136.543 440.956 136.801 442.164 137.317C443.387 137.832 444.389 138.621 445.169 139.681C445.832 140.58 446.237 141.508 446.385 142.465C446.532 143.408 446.606 144.955 446.606 147.106V161.248H440.175V146.598C440.175 145.301 439.954 144.255 439.513 143.46C438.938 142.34 437.848 141.78 436.242 141.78C434.578 141.78 433.311 142.34 432.441 143.46C431.587 144.565 431.16 146.148 431.16 148.211V161.248H424.884V128.787H431.16V140.3C432.073 138.9 433.126 137.928 434.32 137.383C435.528 136.823 436.795 136.543 438.12 136.543Z" fill="#222222"/>
<path d="M483.969 136.632C485.03 136.632 486.076 136.838 487.107 137.251C488.138 137.663 489.073 138.385 489.913 139.416C490.591 140.256 491.047 141.287 491.283 142.51C491.43 143.32 491.504 144.506 491.504 146.067L491.46 161.248H485.008V145.913C485.008 144.999 484.86 144.248 484.566 143.659C484.006 142.539 482.975 141.979 481.472 141.979C479.734 141.979 478.533 142.701 477.87 144.145C477.531 144.911 477.362 145.832 477.362 146.907V161.248H471.02V146.907C471.02 145.478 470.873 144.439 470.578 143.791C470.048 142.627 469.009 142.046 467.463 142.046C465.665 142.046 464.457 142.627 463.839 143.791C463.5 144.454 463.33 145.441 463.33 146.752V161.248H456.944V137.206H463.065V140.72C463.846 139.468 464.583 138.576 465.275 138.046C466.498 137.103 468.081 136.632 470.026 136.632C471.867 136.632 473.355 137.037 474.489 137.847C475.403 138.598 476.095 139.563 476.566 140.742C477.391 139.328 478.415 138.289 479.638 137.626C480.934 136.963 482.378 136.632 483.969 136.632Z" fill="#222222"/>
<path d="M508.339 134.29H501.953V128.478H508.339V134.29ZM501.953 137.162H508.339V161.248H501.953V137.162Z" fill="#222222"/>
<path d="M541.416 138.841C540.9 136.617 539.641 135.063 537.637 134.179C536.518 133.693 535.273 133.45 533.903 133.45C531.281 133.45 529.122 134.444 527.428 136.433C525.749 138.407 524.909 141.383 524.909 145.36C524.909 149.367 525.823 152.203 527.649 153.867C529.476 155.532 531.553 156.364 533.881 156.364C536.164 156.364 538.035 155.709 539.493 154.398C540.952 153.072 541.85 151.341 542.189 149.205H534.654V143.769H548.222V161.248H543.714L543.029 157.182C541.718 158.729 540.539 159.819 539.493 160.452C537.696 161.557 535.486 162.11 532.864 162.11C528.548 162.11 525.012 160.614 522.258 157.624C519.385 154.619 517.949 150.509 517.949 145.294C517.949 140.02 519.4 135.792 522.302 132.61C525.204 129.428 529.041 127.837 533.814 127.837C537.954 127.837 541.276 128.89 543.78 130.997C546.299 133.089 547.743 135.704 548.111 138.841H541.416Z" fill="#222222"/>
<path d="M572.062 149.536C571.664 149.787 571.259 149.993 570.846 150.155C570.449 150.302 569.896 150.442 569.189 150.575L567.775 150.84C566.449 151.076 565.499 151.363 564.924 151.702C563.952 152.276 563.466 153.168 563.466 154.376C563.466 155.451 563.761 156.232 564.35 156.718C564.954 157.189 565.683 157.425 566.537 157.425C567.893 157.425 569.137 157.027 570.272 156.232C571.421 155.436 572.017 153.985 572.062 151.879V149.536ZM568.239 146.598C569.403 146.45 570.235 146.266 570.736 146.045C571.634 145.662 572.084 145.065 572.084 144.255C572.084 143.268 571.738 142.591 571.045 142.222C570.368 141.839 569.366 141.648 568.04 141.648C566.552 141.648 565.499 142.016 564.88 142.753C564.438 143.298 564.144 144.034 563.996 144.962H557.92C558.052 142.856 558.641 141.125 559.687 139.77C561.352 137.648 564.21 136.588 568.261 136.588C570.898 136.588 573.24 137.111 575.288 138.156C577.335 139.202 578.359 141.176 578.359 144.078V155.127C578.359 155.893 578.374 156.821 578.404 157.911C578.448 158.736 578.573 159.296 578.779 159.591C578.985 159.885 579.295 160.128 579.707 160.32V161.248H572.857C572.666 160.762 572.533 160.305 572.459 159.878C572.386 159.451 572.327 158.965 572.283 158.419C571.414 159.362 570.412 160.165 569.277 160.828C567.922 161.609 566.39 161.999 564.681 161.999C562.501 161.999 560.696 161.38 559.267 160.143C557.853 158.891 557.146 157.123 557.146 154.84C557.146 151.879 558.288 149.735 560.571 148.41C561.823 147.688 563.665 147.172 566.095 146.863L568.239 146.598Z" fill="#222222"/>
<path d="M601.868 136.588C604.357 136.588 606.39 137.243 607.967 138.554C609.558 139.851 610.353 142.009 610.353 145.029V161.248H603.901V146.598C603.901 145.331 603.731 144.358 603.392 143.681C602.774 142.443 601.595 141.825 599.857 141.825C597.721 141.825 596.255 142.731 595.46 144.543C595.047 145.5 594.841 146.723 594.841 148.211V161.248H588.565V137.206H594.642V140.72C595.452 139.482 596.218 138.591 596.94 138.046C598.237 137.074 599.879 136.588 601.868 136.588Z" fill="#222222"/>
<path d="M637.331 149.205C637.331 147.349 636.904 145.706 636.049 144.277C635.209 142.848 633.839 142.134 631.939 142.134C629.656 142.134 628.087 143.217 627.232 145.382C626.791 146.531 626.57 147.99 626.57 149.757C626.57 152.556 627.313 154.523 628.801 155.657C629.685 156.32 630.731 156.652 631.939 156.652C633.692 156.652 635.025 155.974 635.939 154.619C636.867 153.263 637.331 151.459 637.331 149.205ZM633.751 136.632C636.565 136.632 638.944 137.67 640.888 139.747C642.848 141.825 643.827 144.874 643.827 148.896C643.827 153.138 642.87 156.372 640.955 158.596C639.054 160.821 636.602 161.933 633.596 161.933C631.681 161.933 630.09 161.454 628.823 160.497C628.131 159.966 627.453 159.193 626.791 158.176V170.727H620.559V137.162H626.592V140.72C627.269 139.674 627.991 138.849 628.757 138.245C630.157 137.169 631.821 136.632 633.751 136.632Z" fill="#222222"/>
<path d="M666.231 149.536C665.833 149.787 665.428 149.993 665.016 150.155C664.618 150.302 664.065 150.442 663.358 150.575L661.944 150.84C660.618 151.076 659.668 151.363 659.094 151.702C658.121 152.276 657.635 153.168 657.635 154.376C657.635 155.451 657.93 156.232 658.519 156.718C659.123 157.189 659.852 157.425 660.707 157.425C662.062 157.425 663.307 157.027 664.441 156.232C665.59 155.436 666.187 153.985 666.231 151.879V149.536ZM662.408 146.598C663.572 146.45 664.404 146.266 664.905 146.045C665.804 145.662 666.253 145.065 666.253 144.255C666.253 143.268 665.907 142.591 665.214 142.222C664.537 141.839 663.535 141.648 662.209 141.648C660.721 141.648 659.668 142.016 659.049 142.753C658.607 143.298 658.313 144.034 658.166 144.962H652.089C652.221 142.856 652.811 141.125 653.857 139.77C655.521 137.648 658.379 136.588 662.43 136.588C665.067 136.588 667.409 137.111 669.457 138.156C671.505 139.202 672.529 141.176 672.529 144.078V155.127C672.529 155.893 672.543 156.821 672.573 157.911C672.617 158.736 672.742 159.296 672.948 159.591C673.155 159.885 673.464 160.128 673.877 160.32V161.248H667.026C666.835 160.762 666.702 160.305 666.629 159.878C666.555 159.451 666.496 158.965 666.452 158.419C665.583 159.362 664.581 160.165 663.447 160.828C662.091 161.609 660.559 161.999 658.851 161.999C656.67 161.999 654.866 161.38 653.437 160.143C652.023 158.891 651.315 157.123 651.315 154.84C651.315 151.879 652.457 149.735 654.74 148.41C655.993 147.688 657.834 147.172 660.265 146.863L662.408 146.598Z" fill="#222222"/>
<path d="M680.216 141.869V137.383H683.574V130.666H689.806V137.383H693.717V141.869H689.806V154.597C689.806 155.584 689.931 156.202 690.181 156.453C690.432 156.689 691.198 156.806 692.479 156.806C692.671 156.806 692.87 156.806 693.076 156.806C693.297 156.792 693.511 156.777 693.717 156.762V161.469L690.734 161.579C687.758 161.682 685.725 161.167 684.635 160.033C683.928 159.311 683.574 158.198 683.574 156.696V141.869H680.216Z" fill="#222222"/>
<path d="M708.784 134.29H702.398V128.478H708.784V134.29ZM702.398 137.162H708.784V161.248H702.398V137.162Z" fill="#222222"/>
<path d="M307.409 179.444C308.621 179.444 309.668 179.678 310.551 180.146C311.833 180.819 312.617 181.998 312.904 183.683H311.175C310.964 182.741 310.528 182.057 309.867 181.629C309.206 181.196 308.372 180.98 307.365 180.98C306.172 180.98 305.165 181.428 304.346 182.323C303.533 183.218 303.126 184.552 303.126 186.325C303.126 187.858 303.463 189.107 304.136 190.073C304.808 191.032 305.906 191.512 307.427 191.512C308.591 191.512 309.554 191.176 310.314 190.503C311.081 189.824 311.473 188.73 311.491 187.22H307.453V185.772H313.114V192.671H311.991L311.57 191.012C310.979 191.661 310.455 192.112 309.999 192.363C309.232 192.796 308.258 193.013 307.076 193.013C305.549 193.013 304.235 192.518 303.135 191.53C301.936 190.289 301.336 188.586 301.336 186.422C301.336 184.262 301.921 182.545 303.091 181.27C304.203 180.052 305.642 179.444 307.409 179.444Z" fill="#222222"/>
<path d="M335.034 179.777H336.781V191.135H343.311V192.671H335.034V179.777Z" fill="#222222"/>
<path d="M369.812 179.426C372.089 179.426 373.774 180.158 374.868 181.621C375.722 182.762 376.149 184.221 376.149 186C376.149 187.925 375.661 189.526 374.684 190.801C373.537 192.299 371.901 193.048 369.777 193.048C367.794 193.048 366.234 192.393 365.099 191.082C364.087 189.818 363.581 188.221 363.581 186.29C363.581 184.546 364.014 183.054 364.88 181.814C365.992 180.222 367.636 179.426 369.812 179.426ZM369.988 191.486C371.527 191.486 372.639 190.936 373.323 189.836C374.014 188.73 374.359 187.46 374.359 186.027C374.359 184.511 373.961 183.291 373.165 182.367C372.375 181.442 371.293 180.98 369.918 180.98C368.584 180.98 367.495 181.439 366.653 182.358C365.81 183.271 365.389 184.619 365.389 186.404C365.389 187.832 365.749 189.037 366.469 190.02C367.194 190.997 368.367 191.486 369.988 191.486Z" fill="#222222"/>
<path d="M402.291 185.228C403.028 185.228 403.602 185.125 404.011 184.921C404.655 184.599 404.977 184.02 404.977 183.183C404.977 182.34 404.634 181.773 403.95 181.48C403.564 181.316 402.99 181.234 402.23 181.234H399.114V185.228H402.291ZM402.879 191.179C403.95 191.179 404.714 190.868 405.17 190.248C405.457 189.856 405.6 189.382 405.6 188.826C405.6 187.89 405.182 187.252 404.345 186.913C403.9 186.732 403.312 186.641 402.581 186.641H399.114V191.179H402.879ZM397.402 179.777H402.941C404.45 179.777 405.524 180.228 406.162 181.129C406.536 181.662 406.723 182.276 406.723 182.972C406.723 183.786 406.492 184.453 406.03 184.973C405.79 185.248 405.445 185.5 404.994 185.728C405.656 185.98 406.15 186.264 406.478 186.58C407.057 187.141 407.347 187.917 407.347 188.905C407.347 189.736 407.086 190.488 406.565 191.161C405.787 192.167 404.55 192.671 402.853 192.671H397.402V179.777Z" fill="#222222"/>
<path d="M435.261 187.387L433.304 181.691L431.224 187.387H435.261ZM432.391 179.777H434.366L439.044 192.671H437.131L435.823 188.809H430.724L429.328 192.671H427.538L432.391 179.777Z" fill="#222222"/>
<path d="M459.841 179.777H461.587V191.135H468.117V192.671H459.841V179.777Z" fill="#222222"/>
<path d="M521.664 179.777V181.313H517.32V192.671H515.547V181.313H511.203V179.777H521.664Z" fill="#222222"/>
<path d="M548.473 185.684C549.292 185.684 549.939 185.52 550.413 185.193C550.893 184.865 551.133 184.274 551.133 183.42C551.133 182.501 550.799 181.875 550.132 181.542C549.775 181.366 549.298 181.278 548.701 181.278H544.436V185.684H548.473ZM542.689 179.777H548.658C549.641 179.777 550.451 179.921 551.089 180.208C552.3 180.758 552.906 181.773 552.906 183.253C552.906 184.025 552.745 184.657 552.423 185.149C552.107 185.64 551.662 186.035 551.089 186.334C551.592 186.539 551.969 186.808 552.221 187.141C552.478 187.475 552.622 188.016 552.651 188.765L552.712 190.494C552.73 190.985 552.771 191.351 552.835 191.591C552.941 192.001 553.128 192.264 553.397 192.381V192.671H551.255C551.197 192.559 551.15 192.416 551.115 192.241C551.08 192.065 551.051 191.726 551.027 191.222L550.922 189.072C550.881 188.23 550.568 187.665 549.983 187.378C549.649 187.22 549.126 187.141 548.412 187.141H544.436V192.671H542.689V179.777Z" fill="#222222"/>
<path d="M581.294 187.387L579.337 181.691L577.257 187.387H581.294ZM578.424 179.777H580.399L585.077 192.671H583.164L581.856 188.809H576.757L575.361 192.671H573.571L578.424 179.777Z" fill="#222222"/>
<path d="M610.824 191.179C611.415 191.179 611.9 191.117 612.281 190.994C612.959 190.766 613.515 190.327 613.948 189.678C614.294 189.157 614.542 188.49 614.694 187.677C614.782 187.191 614.826 186.74 614.826 186.325C614.826 184.728 614.507 183.487 613.869 182.604C613.237 181.72 612.216 181.278 610.806 181.278H607.708V191.179H610.824ZM605.953 179.777H611.175C612.948 179.777 614.323 180.406 615.3 181.664C616.172 182.8 616.608 184.254 616.608 186.027C616.608 187.396 616.35 188.633 615.835 189.739C614.928 191.693 613.369 192.671 611.157 192.671H605.953V179.777Z" fill="#222222"/>
<path d="M638.238 179.777H647.638V181.357H639.941V185.272H647.059V186.764H639.941V191.135H647.77V192.671H638.238V179.777Z" fill="#222222"/>
<path d="M675.263 185.684C676.082 185.684 676.729 185.52 677.203 185.193C677.683 184.865 677.922 184.274 677.922 183.42C677.922 182.501 677.589 181.875 676.922 181.542C676.565 181.366 676.088 181.278 675.491 181.278H671.226V185.684H675.263ZM669.479 179.777H675.447C676.43 179.777 677.241 179.921 677.879 180.208C679.09 180.758 679.695 181.773 679.695 183.253C679.695 184.025 679.534 184.657 679.213 185.149C678.897 185.64 678.452 186.035 677.879 186.334C678.382 186.539 678.759 186.808 679.011 187.141C679.268 187.475 679.412 188.016 679.441 188.765L679.502 190.494C679.52 190.985 679.561 191.351 679.625 191.591C679.73 192.001 679.918 192.264 680.187 192.381V192.671H678.045C677.987 192.559 677.94 192.416 677.905 192.241C677.87 192.065 677.841 191.726 677.817 191.222L677.712 189.072C677.671 188.23 677.358 187.665 676.773 187.378C676.439 187.22 675.915 187.141 675.202 187.141H671.226V192.671H669.479V179.777Z" fill="#222222"/>
<path d="M702.607 188.51C702.648 189.242 702.821 189.836 703.125 190.292C703.704 191.146 704.725 191.574 706.188 191.574C706.844 191.574 707.44 191.48 707.979 191.293C709.02 190.93 709.541 190.28 709.541 189.344C709.541 188.642 709.321 188.142 708.883 187.843C708.438 187.551 707.742 187.296 706.794 187.08L705.047 186.685C703.906 186.427 703.099 186.144 702.625 185.833C701.806 185.295 701.396 184.491 701.396 183.42C701.396 182.261 701.797 181.31 702.598 180.567C703.4 179.824 704.535 179.453 706.004 179.453C707.356 179.453 708.502 179.78 709.444 180.436C710.392 181.085 710.866 182.127 710.866 183.56H709.225C709.137 182.87 708.95 182.34 708.663 181.972C708.131 181.299 707.227 180.962 705.951 180.962C704.921 180.962 704.181 181.179 703.731 181.612C703.28 182.045 703.055 182.548 703.055 183.121C703.055 183.753 703.318 184.216 703.845 184.508C704.19 184.695 704.971 184.929 706.188 185.21L707.996 185.623C708.868 185.822 709.541 186.094 710.015 186.439C710.834 187.042 711.244 187.917 711.244 189.063C711.244 190.491 710.723 191.512 709.681 192.126C708.646 192.741 707.44 193.048 706.065 193.048C704.462 193.048 703.207 192.638 702.3 191.819C701.393 191.006 700.948 189.903 700.966 188.51H702.607Z" fill="#222222"/>
</svg>
